<?xml version="1.0" encoding="iso-8859-1"?>
<!-- Generator: Adobe Illustrator 23.0.1, SVG Export Plug-In . SVG Version: 6.00 Build 0)  -->
<svg version="1.1" id="Camada_1" xmlns="http://www.w3.org/2000/svg" xmlns:xlink="http://www.w3.org/1999/xlink" x="0px" y="0px"
	 viewBox="0 0 363.619 214.973" style="enable-background:new 0 0 363.619 214.973;" xml:space="preserve">
<image style="overflow:visible;" width="1368" height="690" xlink:href="9D79A2BF.jpg"  transform="matrix(1 0 0 1 -1401.0454 -334.5471)">
</image>
<g>
	<g>
		<path style="fill:none;stroke:#193566;stroke-width:9;stroke-miterlimit:10;" d="M-1120.502,758.959l0.329-0.436
			c11.766-12.942,22.926-24.762,33.658-35.546"/>
		<path style="fill:none;stroke:#193566;stroke-width:9;stroke-miterlimit:10;stroke-dasharray:92.8046,39.3717;" d="
			M-1057.958,695.877c101.06-89.667,175.419-83.323,400.534-66.431c40.258,3.021,246.999,34.329,338.646-54.075"/>
		<path style="fill:none;stroke:#193566;stroke-width:9;stroke-miterlimit:10;" d="M-305.594,560.767
			c9.775-12.499,17.57-26.944,22.852-43.615"/>
	</g>
</g>
<rect x="-1073.045" y="-48.547" style="fill:#ECF0F3;" width="718" height="311"/>
<g>
	<g>
		<path style="fill:none;stroke:#193566;stroke-width:6;stroke-miterlimit:10;" d="M2.955,214.453l0.095-0.541
			c3.044-15.913,11.38-29.908,23.58-42.055"/>
		<path style="fill:none;stroke:#193566;stroke-width:6;stroke-miterlimit:10;stroke-dasharray:109.2098,46.3314;" d="
			M64.376,145.291c42.464-21.919,100.406-33.471,153.966-35.613c38.48-1.539,89.218-14.518,118.545-43.258"/>
		<path style="fill:none;stroke:#193566;stroke-width:6;stroke-miterlimit:10;" d="M351.103,48.216
			c7.657-13.411,11.206-29.27,8.74-47.821"/>
	</g>
</g>
</svg>
