<?xml version="1.0" encoding="iso-8859-1"?>
<!-- Generator: Adobe Illustrator 23.0.1, SVG Export Plug-In . SVG Version: 6.00 Build 0)  -->
<svg version="1.1" id="Camada_1" xmlns="http://www.w3.org/2000/svg" xmlns:xlink="http://www.w3.org/1999/xlink" x="0px" y="0px"
	 viewBox="0 0 309 187" style="enable-background:new 0 0 309 187;" xml:space="preserve">
<image style="overflow:visible;" width="1368" height="690" xlink:href="9D79A2BA.jpg"  transform="matrix(1 0 0 1 -1703 -1792)">
</image>
<g>
	<g>
		<path style="fill:none;stroke:#193566;stroke-width:9;stroke-miterlimit:10;" d="M-1422.457-698.494l0.329-0.436
			c11.766-12.942,22.926-24.762,33.658-35.546"/>
		<path style="fill:none;stroke:#193566;stroke-width:9;stroke-miterlimit:10;stroke-dasharray:92.8046,39.3717;" d="
			M-1359.912-761.576c101.06-89.667,175.419-83.323,400.534-66.431c40.258,3.021,246.999,34.329,338.646-54.075"/>
		<path style="fill:none;stroke:#193566;stroke-width:9;stroke-miterlimit:10;" d="M-607.549-896.686
			c9.775-12.499,17.57-26.944,22.852-43.615"/>
	</g>
</g>
<rect x="-1375" y="-1506" style="fill:#ECF0F3;" width="718" height="311"/>
<g>
	<g>
		<path style="fill:none;stroke:#193566;stroke-width:6;stroke-miterlimit:10;" d="M-299-1243l0.095-0.541
			c3.044-15.913,11.38-29.908,23.58-42.055"/>
		<path style="fill:none;stroke:#193566;stroke-width:6;stroke-miterlimit:10;stroke-dasharray:109.2098,46.3314;" d="
			M-237.578-1312.162c42.464-21.919,100.406-33.471,153.966-35.613c38.48-1.539,89.218-14.518,118.545-43.258"/>
		<path style="fill:none;stroke:#193566;stroke-width:6;stroke-miterlimit:10;" d="M49.149-1409.236
			c7.657-13.411,11.206-29.27,8.74-47.821"/>
	</g>
</g>
<image style="overflow:visible;" width="1291" height="583" xlink:href="9D79A2BB.jpg"  transform="matrix(1 0 0 1 -1315.9546 60.5472)">
</image>
<path style="fill:none;" d="M-367,187"/>
<g>
	<g>
		<path style="fill:none;stroke:#193566;stroke-width:6;stroke-miterlimit:10;" d="M3,187c0-8.363,0.606-15.977,1.764-22.911"/>
		<path style="fill:none;stroke:#193566;stroke-width:6;stroke-miterlimit:10;stroke-dasharray:42.4509,25.8397;" d="
			M12.376,139.485C59.265,43.816,267.404,147.181,301.321,35.5"/>
		<path style="fill:none;stroke:#193566;stroke-width:6;stroke-miterlimit:10;" d="M304.236,22.911C305.394,15.977,306,8.363,306,0"
			/>
	</g>
</g>
<line style="fill:none;stroke:#193566;stroke-width:6;stroke-miterlimit:10;stroke-dasharray:43,13;" x1="103" y1="343" x2="103" y2="526"/>
</svg>
