<?xml version="1.0" encoding="iso-8859-1"?>
<!-- Generator: Adobe Illustrator 23.0.1, SVG Export Plug-In . SVG Version: 6.00 Build 0)  -->
<svg version="1.1" id="Camada_1" xmlns="http://www.w3.org/2000/svg" xmlns:xlink="http://www.w3.org/1999/xlink" x="0px" y="0px"
	 viewBox="0 0 358.268 171.433" style="enable-background:new 0 0 358.268 171.433;" xml:space="preserve">
<g>
	<g>
		<path style="fill:none;stroke:#193566;stroke-width:9;stroke-miterlimit:10;" d="M-269.556-58.17l0.329-0.436
			c11.766-12.942,22.926-24.762,33.658-35.546"/>
		<path style="fill:none;stroke:#193566;stroke-width:9;stroke-miterlimit:10;stroke-dasharray:92.8046,39.3717;" d="
			M-207.012-121.253c101.06-89.667,175.419-83.324,400.534-66.431c40.258,3.021,246.999,34.329,338.646-54.075"/>
		<path style="fill:none;stroke:#193566;stroke-width:9;stroke-miterlimit:10;" d="M545.352-256.362
			c9.775-12.499,17.57-26.944,22.852-43.615"/>
	</g>
</g>
<g>
	<g>
		<path style="fill:none;stroke:#193566;stroke-width:9;stroke-miterlimit:10;" d="M4.426,170.258l0.109-0.403
			c-0.401-19.943,2.608-35.648,8.316-47.961"/>
		<path style="fill:none;stroke:#193566;stroke-width:9;stroke-miterlimit:10;stroke-dasharray:108.7206,46.1239;" d="
			M44.994,90.205c43.098-19.971,112.748-5.767,169.412-4.537c13.617,0.296,74.78,5.307,111.401-21.824"/>
		<path style="fill:none;stroke:#193566;stroke-width:9;stroke-miterlimit:10;" d="M341.784,47.365
			c8.031-11.838,12.675-27.223,11.901-47.19"/>
	</g>
</g>
</svg>
